<svg xmlns="http://www.w3.org/2000/svg" xmlns:xlink="http://www.w3.org/1999/xlink" width="153" zoomAndPan="magnify" viewBox="0 0 114.75 48" height="64" preserveAspectRatio="xMidYMid meet" version="1.0"><defs><g/><clipPath id="3005fe807a"><path d="M 55.484375 14.132812 L 73.851562 14.132812 L 73.851562 33.234375 L 55.484375 33.234375 Z M 55.484375 14.132812 " clip-rule="nonzero"/></clipPath></defs><g fill="#ffffff" fill-opacity="1"><g transform="translate(14.196254, 30.13956)"><g><path d="M 1.453125 0 L 1.453125 -12.484375 L 5.765625 -12.484375 L 5.765625 -10.6875 L 5.8125 -10.6875 C 5.84375 -10.75 5.894531 -10.828125 5.96875 -10.921875 C 6.039062 -11.015625 6.195312 -11.179688 6.4375 -11.421875 C 6.6875 -11.671875 6.945312 -11.894531 7.21875 -12.09375 C 7.5 -12.289062 7.859375 -12.460938 8.296875 -12.609375 C 8.734375 -12.765625 9.179688 -12.84375 9.640625 -12.84375 C 10.109375 -12.84375 10.566406 -12.773438 11.015625 -12.640625 C 11.472656 -12.515625 11.804688 -12.390625 12.015625 -12.265625 L 12.359375 -12.0625 L 10.5625 -8.421875 C 10.019531 -8.867188 9.269531 -9.09375 8.3125 -9.09375 C 7.800781 -9.09375 7.359375 -8.976562 6.984375 -8.75 C 6.609375 -8.53125 6.34375 -8.253906 6.1875 -7.921875 C 6.03125 -7.597656 5.921875 -7.320312 5.859375 -7.09375 C 5.796875 -6.875 5.765625 -6.695312 5.765625 -6.5625 L 5.765625 0 Z M 1.453125 0 "/></g></g></g><g fill="#ffffff" fill-opacity="1"><g transform="translate(24.411944, 30.13956)"><g><path d="M 1.875 -19.4375 C 2.375 -19.9375 2.972656 -20.1875 3.671875 -20.1875 C 4.367188 -20.1875 4.96875 -19.9375 5.46875 -19.4375 C 5.976562 -18.9375 6.234375 -18.335938 6.234375 -17.640625 C 6.234375 -16.941406 5.976562 -16.335938 5.46875 -15.828125 C 4.96875 -15.328125 4.367188 -15.078125 3.671875 -15.078125 C 2.972656 -15.078125 2.375 -15.328125 1.875 -15.828125 C 1.375 -16.335938 1.125 -16.941406 1.125 -17.640625 C 1.125 -18.335938 1.375 -18.9375 1.875 -19.4375 Z M 1.453125 -12.484375 L 1.453125 0 L 5.765625 0 L 5.765625 -12.484375 Z M 1.453125 -12.484375 "/></g></g></g><g fill="#ffffff" fill-opacity="1"><g transform="translate(29.859882, 30.13956)"><g><path d="M 4.625 -12.484375 L 7.65625 -5.6875 L 10.703125 -12.484375 L 15.8125 -12.484375 L 9.125 0 L 6.203125 0 L -0.484375 -12.484375 Z M 4.625 -12.484375 "/></g></g></g><g fill="#ffffff" fill-opacity="1"><g transform="translate(43.286505, 30.13956)"><g><path d="M 14.09375 -5.640625 L 5.03125 -5.640625 C 5.03125 -4.765625 5.3125 -4.113281 5.875 -3.6875 C 6.445312 -3.269531 7.066406 -3.0625 7.734375 -3.0625 C 8.429688 -3.0625 8.984375 -3.15625 9.390625 -3.34375 C 9.796875 -3.53125 10.257812 -3.898438 10.78125 -4.453125 L 13.890625 -2.890625 C 12.585938 -0.722656 10.429688 0.359375 7.421875 0.359375 C 5.535156 0.359375 3.921875 -0.28125 2.578125 -1.5625 C 1.234375 -2.851562 0.5625 -4.40625 0.5625 -6.21875 C 0.5625 -8.039062 1.234375 -9.597656 2.578125 -10.890625 C 3.921875 -12.191406 5.535156 -12.84375 7.421875 -12.84375 C 9.398438 -12.84375 11.007812 -12.269531 12.25 -11.125 C 13.488281 -9.988281 14.109375 -8.359375 14.109375 -6.234375 C 14.109375 -5.941406 14.101562 -5.742188 14.09375 -5.640625 Z M 5.15625 -8.03125 L 9.90625 -8.03125 C 9.800781 -8.675781 9.539062 -9.171875 9.125 -9.515625 C 8.71875 -9.867188 8.191406 -10.046875 7.546875 -10.046875 C 6.828125 -10.046875 6.253906 -9.859375 5.828125 -9.484375 C 5.410156 -9.109375 5.1875 -8.625 5.15625 -8.03125 Z M 5.15625 -8.03125 "/></g></g></g><g fill="#ff3131" fill-opacity="1"><g transform="translate(56.062324, 30.13956)"><g><path d="M 2.3125 -1.546875 C 1.144531 -2.816406 0.5625 -4.375 0.5625 -6.21875 C 0.5625 -8.070312 1.144531 -9.640625 2.3125 -10.921875 C 3.476562 -12.203125 4.960938 -12.84375 6.765625 -12.84375 C 8.421875 -12.84375 9.78125 -12.320312 10.84375 -11.28125 L 10.84375 -12.484375 L 15.15625 -12.484375 L 15.15625 0 L 10.90625 0 L 10.90625 -1.40625 L 10.84375 -1.40625 C 9.78125 -0.226562 8.421875 0.359375 6.765625 0.359375 C 4.960938 0.359375 3.476562 -0.273438 2.3125 -1.546875 Z M 5.96875 -8.34375 C 5.414062 -7.789062 5.140625 -7.082031 5.140625 -6.21875 C 5.140625 -5.363281 5.40625 -4.664062 5.9375 -4.125 C 6.46875 -3.582031 7.171875 -3.3125 8.046875 -3.3125 C 8.890625 -3.3125 9.582031 -3.585938 10.125 -4.140625 C 10.675781 -4.691406 10.953125 -5.390625 10.953125 -6.234375 C 10.953125 -7.085938 10.671875 -7.789062 10.109375 -8.34375 C 9.546875 -8.894531 8.859375 -9.171875 8.046875 -9.171875 C 7.222656 -9.171875 6.53125 -8.894531 5.96875 -8.34375 Z M 5.96875 -8.34375 "/></g></g></g><g fill="#ff3131" fill-opacity="1"><g transform="translate(70.778193, 30.13956)"><g><path d="M 1.453125 0 L 1.453125 -12.484375 L 5.765625 -12.484375 L 5.765625 -11.171875 L 5.8125 -11.171875 C 6.9375 -12.285156 8.128906 -12.84375 9.390625 -12.84375 C 10.296875 -12.84375 11.144531 -12.65625 11.9375 -12.28125 C 12.738281 -11.90625 13.34375 -11.332031 13.75 -10.5625 C 15.007812 -12.082031 16.382812 -12.84375 17.875 -12.84375 C 19.207031 -12.84375 20.351562 -12.46875 21.3125 -11.71875 C 22.269531 -10.976562 22.75 -9.8125 22.75 -8.21875 L 22.75 0 L 18.4375 0 L 18.4375 -7.0625 C 18.4375 -7.71875 18.253906 -8.269531 17.890625 -8.71875 C 17.523438 -9.164062 16.976562 -9.390625 16.25 -9.390625 C 15.613281 -9.390625 15.128906 -9.195312 14.796875 -8.8125 C 14.472656 -8.4375 14.289062 -7.976562 14.25 -7.4375 L 14.25 0 L 9.953125 0 L 9.953125 -7.0625 C 9.953125 -7.71875 9.769531 -8.269531 9.40625 -8.71875 C 9.039062 -9.164062 8.492188 -9.390625 7.765625 -9.390625 C 7.097656 -9.390625 6.597656 -9.179688 6.265625 -8.765625 C 5.929688 -8.359375 5.765625 -7.867188 5.765625 -7.296875 L 5.765625 0 Z M 1.453125 0 "/></g></g></g><g fill="#ff3131" fill-opacity="1"><g transform="translate(92.840295, 30.13956)"><g><path d="M 1.875 -19.4375 C 2.375 -19.9375 2.972656 -20.1875 3.671875 -20.1875 C 4.367188 -20.1875 4.96875 -19.9375 5.46875 -19.4375 C 5.976562 -18.9375 6.234375 -18.335938 6.234375 -17.640625 C 6.234375 -16.941406 5.976562 -16.335938 5.46875 -15.828125 C 4.96875 -15.328125 4.367188 -15.078125 3.671875 -15.078125 C 2.972656 -15.078125 2.375 -15.328125 1.875 -15.828125 C 1.375 -16.335938 1.125 -16.941406 1.125 -17.640625 C 1.125 -18.335938 1.375 -18.9375 1.875 -19.4375 Z M 1.453125 -12.484375 L 1.453125 0 L 5.765625 0 L 5.765625 -12.484375 Z M 1.453125 -12.484375 "/></g></g></g><g clip-path="url(#3005fe807a)"><path fill="#000000" d="M 73.847656 23.535156 L 71.136719 23.535156 C 66.503906 22.519531 65.472656 21.46875 64.46875 16.769531 L 64.46875 14.132812 L 64.125 14.132812 L 64.125 16.796875 C 63.125 21.472656 62.089844 22.519531 57.464844 23.535156 L 55.488281 23.535156 L 55.488281 23.878906 L 57.464844 23.878906 C 62.089844 24.894531 63.125 25.941406 64.125 30.621094 L 64.125 33.234375 L 64.46875 33.234375 L 64.46875 30.648438 C 65.472656 25.945312 66.503906 24.898438 71.136719 23.878906 L 73.847656 23.878906 Z M 73.847656 23.535156 " fill-opacity="1" fill-rule="nonzero"/></g></svg>